<?xml version="1.0" encoding="utf-8"?>
<!-- Generator: Adobe Illustrator 16.0.0, SVG Export Plug-In . SVG Version: 6.00 Build 0)  -->
<!DOCTYPE svg PUBLIC "-//W3C//DTD SVG 1.1//EN" "http://www.w3.org/Graphics/SVG/1.1/DTD/svg11.dtd">
<svg version="1.1" id="Layer_1" xmlns="http://www.w3.org/2000/svg" xmlns:xlink="http://www.w3.org/1999/xlink" x="0px" y="0px"
	 width="612px" height="792px" viewBox="0 0 612 792" enable-background="new 0 0 612 792" xml:space="preserve">
<rect x="-1234.47" y="-852.292" fill="#FDFDFE" width="2547.959" height="2440.297"/>
<g>
	<path fill="#262626" d="M846.111,425.845c12.975-25.69,20.974-52.941,23.774-80.99c2.707-27.124,0.467-53.851-6.663-79.443
		c-7.143-25.643-18.838-48.856-34.75-68.99c-16.51-20.889-36.854-37.525-60.471-49.451c-23.613-11.925-49.078-18.421-75.688-19.307
		c-25.652-0.855-51.272,3.514-76.15,12.987c-24.827,9.455-47.667,23.516-67.887,41.796c-20.91,18.904-38.091,41.518-51.065,67.21
		c-14.892,29.488-23.403,62.014-24.698,94.266l-0.021,0.011l-0.079,3.063l-0.245,9.423l0.208-0.113
		c0.379,23.965,4.646,47.198,12.711,69.216l-0.011,0.036l0.659,1.753c0.002,0.003,0.004,0.009,0.006,0.012l5.441,14.443l0.276-0.836
		c5.339,11.526,11.719,22.373,19.079,32.448l-0.972-0.197l10.211,11.862l1.225,1.422l0.036,0.007
		c15.345,17.461,33.592,31.614,54.279,42.063c20.686,10.444,42.898,16.728,66.053,18.713l0.028,0.023l1.872,0.144l15.581,1.174
		l-0.729-0.662c12.503-0.057,25.045-1.366,37.513-3.914l-0.505,0.711l14.824-4.187l1.819-0.513l0.024-0.029
		c22.502-6.579,43.726-16.935,63.231-30.854l0.03,0.232l7.44-5.788l2.416-1.882l-0.004-0.024
		C810.102,481.494,831.221,455.333,846.111,425.845z"/>
	<path fill="#B42025" d="M663.172,354.563c65.554,33.104,108.339,89.708,115.958,144.781c25.038-19.488,46.565-45.11,62.137-75.945
		c51.872-102.721,17.991-224.339-75.68-271.642c-93.67-47.301-211.656-2.374-263.529,100.347
		c-15.571,30.834-23.411,63.368-24.231,95.085C526.669,320.63,597.617,321.459,663.172,354.563z"/>
	<path fill="#262626" d="M779.13,499.344c-7.619-55.072-50.404-111.677-115.958-144.781
		c-65.555-33.104-136.503-33.933-185.346-7.374c-0.706,27.236,3.776,53.866,12.984,78.298c3.019-9.208,9.176-17.437,18.086-22.953
		c20.308-12.582,47.21-6.336,60.09,13.95c12.883,20.281,6.861,46.923-13.443,59.5c-9.793,6.069-21.116,7.745-31.663,5.592
		c14.727,17.112,32.774,31.529,53.854,42.174c21.078,10.646,43.387,16.608,65.895,18.307c-2.881-2.605-5.471-5.623-7.65-9.054
		c-12.878-20.283-6.858-46.926,13.446-59.506c20.31-12.578,47.213-6.332,60.091,13.952c9.702,15.274,8.681,34.155-1.089,47.92
		C733.549,528.277,757.634,516.074,779.13,499.344z"/>
	<g>
		<path fill="#FFFFFF" d="M557.896,480.106c18.361-11.374,23.805-35.466,12.156-53.807c-11.646-18.342-35.975-23.989-54.336-12.612
			c-8.057,4.989-13.624,12.427-16.354,20.755c7.012,18.606,17.06,35.8,29.902,50.719
			C538.803,487.109,549.043,485.591,557.896,480.106z"/>
		<path fill="#FFFFFF" d="M697.129,490.471c-11.646-18.343-35.977-23.989-54.337-12.612c-18.362,11.372-23.808,35.461-12.157,53.807
			c1.969,3.103,4.308,5.829,6.913,8.185c19.64,1.479,39.448-0.64,58.592-6.044C704.974,521.355,705.898,504.284,697.129,490.471z"/>
	</g>
	<g>
		<path fill="#262626" d="M636.638,316.925c-12.943,8.018-30.095,4.038-38.305-8.894c-8.21-12.929-4.372-29.912,8.571-37.93
			s30.093-4.038,38.304,8.893C653.42,291.924,649.583,308.905,636.638,316.925z"/>
		<path fill="#262626" d="M749.792,374.085c-12.945,8.018-30.095,4.037-38.307-8.892c-8.208-12.932-4.372-29.911,8.571-37.931
			c12.944-8.02,30.094-4.038,38.304,8.892C766.575,349.085,762.737,366.066,749.792,374.085z"/>
		<g>
			<path fill="#262626" d="M827.66,358.283c-11.617,7.195-27.005,3.626-34.373-7.979c-7.372-11.604-3.927-26.846,7.689-34.04
				c11.616-7.199,27.009-3.623,34.376,7.978C842.722,335.847,839.275,351.085,827.66,358.283z"/>
			<path fill="#262626" d="M600.904,243.284c-11.617,7.197-27.007,3.624-34.377-7.98c-7.368-11.604-3.925-26.842,7.691-34.04
				c11.616-7.196,27.007-3.624,34.377,7.981C615.963,220.849,612.52,236.089,600.904,243.284z"/>
			<g>
				<path fill="#262626" d="M691.907,200.476c-13.91,8.618-31.16,6.196-38.528-5.409c-7.369-11.604-2.066-27.994,11.845-36.612
					c13.912-8.618,31.161-6.198,38.531,5.406C711.123,175.465,705.819,191.857,691.907,200.476z"/>
				<path fill="#262626" d="M819.072,239.331c-0.138,16.348-11.401,29.396-25.16,29.14c-13.756-0.252-24.794-13.713-24.654-30.059
					c0.141-16.347,11.402-29.395,25.162-29.139C808.176,209.526,819.214,222.985,819.072,239.331z"/>
			</g>
		</g>
	</g>
	<path fill="#070909" d="M663.813,355.276c0.679,0.342,1.307,0.742,1.892,1.189L768.37,153.162l-5.564-2.81L660.042,353.851
		C661.321,354.184,662.59,354.658,663.813,355.276z"/>
	<path opacity="0.15" fill="#FFFFFF" d="M833.385,237.941c34.849,75.917,13.628,159.44-47.402,186.548
		c-61.029,27.111-138.755-12.459-173.605-88.375c-34.854-75.92-13.633-159.439,47.399-186.551
		C720.805,122.452,798.531,162.021,833.385,237.941z"/>
</g>
<g>
	<path d="M-726.246,533.981c-10.091,1.407-20.469,2.275-31.138,2.604c-10.669,0.334-21.051,0.248-31.138-0.248
		c-10.091-0.496-18.608-1.073-25.555-1.736l-25.059,247.117h-80.884l25.803-246.373c-5.458-0.659-11.747-0.868-18.856-0.62
		c-7.114,0.248-14.142,1.078-21.089,2.481c-6.947,1.407-13.274,3.349-18.98,5.83s-9.885,5.625-12.529,9.429
		c5.788,3.473,10.296,8.188,13.522,14.142c3.226,5.955,4.838,11.909,4.838,17.864c0,5.296-1.078,10.339-3.225,15.135
		c-2.152,4.799-5.086,9.017-8.808,12.653c-3.722,3.641-7.982,6.493-12.777,8.56c-4.8,2.07-9.925,3.102-15.383,3.102
		c-6.122,0-11.58-1.24-16.375-3.722c-4.799-2.481-8.851-5.83-12.157-10.049c-3.311-4.218-5.831-8.971-7.567-14.266
		c-1.737-5.292-2.605-10.832-2.605-16.624c0-15.879,3.144-30.723,9.428-44.535c6.284-13.809,16.251-25.761,29.897-35.852
		c13.646-10.088,31.262-18.027,52.847-23.819c21.586-5.787,47.676-8.684,78.279-8.684c6.614,0,14.472,0.086,23.57,0.248
		c9.095,0.167,18.732,0.291,28.905,0.372c10.172,0.086,20.593,0.043,31.262-0.124c10.669-0.162,20.965-0.659,30.89-1.488
		c9.925-0.826,19.104-1.985,27.541-3.474c8.436-1.488,15.545-3.474,21.337-5.954l-8.436,70.959
		C-707.638,530.221-716.159,532.578-726.246,533.981z"/>
	<path d="M-619.313,639.552c-2.648-2.644-5.874-5.044-9.676-7.195c-3.807-2.147-7.858-3.884-12.158-5.21
		c-4.303-1.322-8.684-2.357-13.149-3.102c-4.466-0.744-8.684-1.116-12.654-1.116c-3.311,0-6.908,0.62-10.793,1.86
		c-3.888,1.241-7.528,2.854-10.917,4.839c-3.392,1.984-6.327,4.218-8.808,6.698c-2.481,2.481-3.97,4.881-4.466,7.195
		l-13.894,138.197h-77.41l21.337-210.397l77.162-2.729l-2.729,27.54c2.481-2.978,5.497-6.117,9.056-9.429
		c3.555-3.307,7.567-6.326,12.033-9.056s9.304-5.001,14.515-6.823c5.21-1.818,10.792-2.729,16.747-2.729
		c6.118,0,12.034,1.531,17.74,4.59c5.707,3.063,10.459,6.741,14.266,11.041L-619.313,639.552z"/>
	<path d="M-415.125,734.826c-6.947,6.288-14.391,12.653-22.33,19.104c-7.939,6.45-16.666,12.242-26.175,17.367
		c-9.514,5.129-19.934,9.305-31.262,12.53c-11.332,3.225-23.78,4.838-37.341,4.838c-14.887,0-28.657-1.531-41.31-4.59
		c-12.654-3.06-23.613-8.021-32.875-14.887c-9.266-6.862-16.542-15.713-21.834-26.548c-5.295-10.832-7.939-24.105-7.939-39.821
		c0-10.751,0.783-21.501,2.357-32.255c1.57-10.75,4.133-21.004,7.691-30.766c3.555-9.758,8.103-18.895,13.646-27.416
		c5.54-8.517,12.281-15.879,20.221-22.082c7.939-6.202,17.12-11.079,27.54-14.638c10.421-3.556,22.245-5.335,35.48-5.335
		c15.383,0,28.284,1.45,38.705,4.342c10.42,2.896,18.813,7.238,25.183,13.026c6.366,5.791,10.917,12.986,13.646,21.585
		c2.729,8.603,4.094,18.527,4.094,29.773c0,5.792-1.822,11.165-5.458,16.127c-3.64,4.962-8.436,9.471-14.39,13.522
		c-5.955,4.055-12.82,7.733-20.593,11.041c-7.777,3.311-15.716,6.202-23.818,8.684c-8.106,2.48-16.127,4.509-24.067,6.078
		c-7.939,1.574-15.135,2.69-21.585,3.35c-0.167,1.159-0.291,2.233-0.372,3.226c-0.085,0.992-0.124,1.985-0.124,2.978
		c0,5.792,0.907,10.754,2.729,14.887c1.818,4.136,4.257,7.528,7.319,10.172c3.059,2.648,6.656,4.591,10.793,5.831
		c4.132,1.24,8.517,1.86,13.149,1.86c9.758,0,18.608-0.868,26.548-2.604c7.939-1.737,15.173-3.885,21.709-6.451
		c6.533-2.563,12.487-5.416,17.864-8.56c5.373-3.141,10.378-6.117,15.011-8.933L-415.125,734.826z M-556.051,666.844
		c4.962-0.329,9.676-1.446,14.142-3.35c4.466-1.899,8.56-4.38,12.282-7.443c3.721-3.059,6.904-6.532,9.552-10.42
		c2.644-3.885,4.548-7.979,5.707-12.281c-0.83-5.125-1.903-9.468-3.225-13.026c-1.326-3.555-4.055-5.334-8.188-5.334
		c-3.807,0-7.319,1.531-10.545,4.59c-3.226,3.063-6.121,7.071-8.684,12.033c-2.566,4.962-4.8,10.545-6.699,16.747
		C-553.612,654.563-555.059,660.727-556.051,666.844z"/>
	<path d="M-329.776,656.672c0-3.637-0.209-7.153-0.62-10.545c-0.415-3.389-1.117-6.451-2.109-9.181
		c-0.993-2.729-2.357-4.919-4.094-6.574c-1.736-1.651-3.931-2.481-6.575-2.481c-4.136,0-7.815,1.822-11.041,5.459
		c-3.225,3.64-5.831,8.105-7.815,13.397l-13.398,134.972h-77.41l20.841-210.397l77.658-3.225l-2.233,20.841
		c7.11-6.613,14.677-11.328,22.702-14.143c8.021-2.811,16.003-4.218,23.942-4.218c19.682,0,33.991,5.459,42.923,16.375
		c8.932,10.917,13.397,25.89,13.397,44.908c0,6.784-0.457,13.771-1.364,20.966c-0.911,7.194-1.903,14.228-2.978,21.089
		c-1.078,6.865-2.07,13.316-2.977,19.353c-0.911,6.04-1.365,11.289-1.365,15.755c0,4.304,0.992,8.149,2.978,11.537
		c1.985,3.393,5.621,5.086,10.917,5.086c3.636,0,6.78-0.453,9.428-1.364c2.644-0.907,4.877-2.232,6.699-3.97
		c1.818-1.736,3.431-3.885,4.838-6.451c1.403-2.563,2.854-5.497,4.342-8.808c3.14,3.807,6.327,7.61,9.552,11.413
		c3.226,3.807,6.408,7.61,9.552,11.413c-2.814,8.106-6.742,15.674-11.785,22.702c-5.047,7.032-10.917,13.111-17.616,18.236
		c-6.699,5.129-13.933,9.18-21.702,12.157c-7.769,2.978-15.612,4.466-23.524,4.466c-11.871,0-21.601-1.655-29.184-4.962
		c-7.583-3.308-13.6-7.606-18.05-12.902c-4.451-5.291-7.501-11.327-9.149-18.111c-1.651-6.78-2.473-13.646-2.473-20.594
		c0-6.117,0.399-12.486,1.202-19.104c0.799-6.613,1.683-13.064,2.644-19.353c0.961-6.284,1.841-12.32,2.644-18.111
		C-330.179,666.515-329.776,661.304-329.776,656.672z"/>
	<path d="M8.396,705.053c3.14,3.807,6.327,7.61,9.552,11.413c3.225,3.807,6.408,7.61,9.552,11.413
		c-2.814,8.106-7.032,15.592-12.654,22.454c-5.625,6.865-12.119,12.82-19.477,17.863c-7.362,5.048-15.177,8.975-23.446,11.786
		c-8.273,2.811-16.46,4.218-24.563,4.218c-13.564,0-24.438-2.854-32.626-8.561c-8.188-5.706-14.104-13.521-17.74-23.446
		c-1.326,2.152-2.605,4.261-3.846,6.327c-1.241,2.07-2.772,4.013-4.59,5.83c-1.326,1.489-3.311,3.393-5.955,5.707
		c-2.648,2.318-5.955,4.633-9.925,6.947c-3.97,2.318-8.645,4.303-14.018,5.954c-5.377,1.651-11.622,2.481-18.732,2.481
		c-11.083,0-20.636-1.903-28.656-5.707c-8.025-3.803-14.681-9.056-19.973-15.755c-5.295-6.698-9.223-14.677-11.785-23.942
		c-2.566-9.262-3.846-19.267-3.846-30.021c0-1.817,0.082-5.21,0.248-10.172c0.163-4.963,0.621-10.956,1.365-17.988
		c0.744-7.028,1.818-14.677,3.226-22.95c1.403-8.269,3.388-16.623,5.955-25.059c2.563-8.437,5.745-16.581,9.552-24.439
		c3.803-7.854,8.474-14.844,14.018-20.965c5.54-6.117,11.991-10.998,19.353-14.639c7.358-3.637,15.836-5.458,25.431-5.458
		c8.436,0,15.383,0.829,20.841,2.48c5.458,1.655,9.882,3.517,13.274,5.583c3.388,2.07,5.993,4.136,7.815,6.202
		c1.818,2.07,3.388,3.517,4.714,4.342l10.421-103.461l78.154-6.451c-1.985,17.038-3.931,35.15-5.831,54.336
		c-1.903,19.189-3.846,38.581-5.831,58.182s-3.97,38.953-5.955,58.058s-3.888,37.178-5.707,54.212
		c-0.496,2.318-0.744,4.714-0.744,7.195c0,2.151,0.206,4.304,0.62,6.451c0.411,2.151,1.198,4.055,2.357,5.706
		c1.155,1.655,2.644,3.021,4.466,4.094c1.818,1.078,4.132,1.613,6.947,1.613c3.307,0,6.49-0.659,9.552-1.985
		c3.059-1.321,5.831-3.059,8.312-5.21c2.481-2.147,4.59-4.505,6.327-7.071C6.287,710.058,7.566,707.534,8.396,705.053z
		 M-103.254,630.124c-0.663-1.322-1.822-2.978-3.474-4.963c-1.655-1.984-4.303-2.977-7.939-2.977c-4.466,0-8.727,1.821-12.778,5.458
		c-4.055,3.641-7.61,8.684-10.668,15.135c-3.063,6.451-5.501,14.228-7.319,23.322c-1.822,9.099-2.729,19.104-2.729,30.021
		c0,7.113,0.496,12.696,1.488,16.747c0.993,4.056,2.233,7.071,3.722,9.056c1.489,1.985,3.059,3.188,4.714,3.598
		c1.651,0.415,3.14,0.621,4.466,0.621c3.97,0,8.227-1.241,12.778-3.722c4.547-2.481,7.897-6.699,10.048-12.654L-103.254,630.124z"/>
	<path d="M54.788,814.718c1.985,1.817,4.629,3.388,7.94,4.714c3.307,1.321,6.699,2.356,10.172,3.102
		c3.474,0.744,6.699,1.279,9.676,1.612c2.977,0.329,5.043,0.496,6.203,0.496c5.955,0,10.626-1.531,14.018-4.59
		c3.388-3.063,6.036-7.156,7.939-12.281c1.9-5.129,3.307-11.084,4.218-17.864c0.907-6.784,1.861-13.894,2.853-21.337l0.745-6.699
		c-2.481,3.311-5.086,6.412-7.816,9.304c-2.729,2.896-6.079,5.377-10.048,7.443c-3.97,2.07-8.727,3.722-14.266,4.962
		c-5.544,1.241-12.282,1.861-20.221,1.861c-10.754,0-19.81-1.736-27.168-5.21c-7.362-3.474-13.359-8.313-17.988-14.515
		c-4.633-6.203-7.982-13.561-10.048-22.082c-2.07-8.517-3.102-17.821-3.102-27.912c0-4.796,0.248-9.591,0.745-14.391l13.646-132.738
		l75.921,3.474L85.554,697.113c-0.167,0.992-0.291,1.946-0.372,2.854c-0.085,0.911-0.124,1.86-0.124,2.854
		c0,2.151,0.454,4.632,1.365,7.442c0.907,2.815,2.19,5.459,3.846,7.94c1.651,2.48,3.598,4.551,5.831,6.202
		c2.233,1.655,4.59,2.481,7.071,2.481c3.636,0,7.443-0.992,11.413-2.978c3.97-1.985,6.862-5.044,8.684-9.18l14.887-146.633
		l77.41,3.722l-19.353,190.796c-0.496,3.311-0.992,7.114-1.488,11.413c-0.497,4.303-1.159,8.847-1.985,13.646
		c-0.83,4.795-1.903,9.8-3.226,15.01c-1.325,5.211-2.978,10.378-4.962,15.507c-6.121,19.187-16.251,33.452-30.394,42.8
		c-14.142,9.343-31.471,14.018-51.979,14.018c-12.405,0-23.074-1.946-32.006-5.83c-8.932-3.889-17.616-10.049-26.051-18.484
		L54.788,814.718z"/>
	<path d="M309.1,785.192c-8.273,0-16.252-0.992-23.943-2.978c-7.691-1.984-15.01-4.671-21.957-8.063
		c-6.947-3.389-13.607-7.195-19.973-11.413c-6.37-4.218-12.282-8.56-17.74-13.025l27.292-266.719l77.658-6.698l-11.165,106.438
		c6.284-3.97,12.406-6.946,18.36-8.932c5.955-1.984,12.405-2.978,19.353-2.978c10.584,0,19.559,1.779,26.92,5.335
		c7.358,3.559,13.398,8.312,18.112,14.266c4.714,5.955,8.312,12.902,10.793,20.842c2.48,7.939,4.132,16.375,4.962,25.307h10.421
		c3.307,0,7.442-0.286,12.405-0.868c4.962-0.577,10.087-1.364,15.383-2.356c5.291-0.993,10.378-2.109,15.259-3.35
		c4.877-1.241,8.808-2.521,11.785-3.846l-7.443,46.396c-9.429,4.466-19.189,7.857-29.277,10.172
		c-10.091,2.318-20.097,3.311-30.021,2.978l-0.496,5.459c-0.829,6.287-2.07,12.986-3.722,20.097
		c-1.655,7.113-4.055,14.142-7.195,21.089c-3.144,6.947-7.237,13.607-12.281,19.973c-5.047,6.37-11.413,11.995-19.104,16.872
		c-7.691,4.881-16.79,8.769-27.292,11.661C335.686,783.742,323.323,785.192,309.1,785.192z M319.52,726.887
		c4.796,0,8.933-2.233,12.406-6.699c3.473-4.466,6.365-9.882,8.684-16.251c2.314-6.366,4.133-13.064,5.458-20.097
		c1.322-7.029,2.233-13.189,2.729-18.484c-7.443-4.796-14.104-9.925-19.973-15.383c-5.873-5.459-10.793-11.08-14.763-16.872
		l-6.947,69.471c-0.333,2.318-0.62,4.715-0.868,7.195c-0.248,2.481-0.372,5.048-0.372,7.691
		C306.866,723.746,311.414,726.887,319.52,726.887z"/>
	<path d="M671.834,705.053c3.14,3.807,6.327,7.61,9.552,11.413c3.226,3.807,6.408,7.61,9.553,11.413
		c-2.814,8.106-7.032,15.631-12.653,22.578c-5.625,6.947-12.119,13.025-19.477,18.236c-7.362,5.21-15.178,9.304-23.447,12.281
		c-8.272,2.978-16.46,4.466-24.563,4.466c-13.894,0-24.978-3.02-33.246-9.056c-8.273-6.036-14.062-14.267-17.368-24.688
		c-2.481,5.129-5.458,9.514-8.932,13.15c-1.985,1.984-4.385,4.136-7.195,6.45c-2.814,2.318-6.203,4.552-10.173,6.699
		c-3.97,2.151-8.521,3.927-13.646,5.334c-5.129,1.403-10.836,2.109-17.12,2.109c-10.754,0-19.81-1.736-27.168-5.21
		c-7.361-3.474-13.359-8.313-17.988-14.515c-4.632-6.203-7.981-13.561-10.048-22.082c-2.07-8.517-3.102-17.821-3.102-27.912
		c0-4.796,0.248-9.591,0.744-14.391l13.646-132.738l75.921,3.474L521.976,702.82c-0.663,6.784-0.043,12.49,1.861,17.119
		c1.899,4.633,5.415,6.947,10.544,6.947c4.466,0,8.227-1.694,11.289-5.087c3.059-3.388,5.583-7.648,7.567-12.777l14.391-140.43
		l75.674,3.226l-13.895,136.46c-0.333,2.151-0.333,4.303,0,6.451c0.329,2.151,0.992,4.055,1.984,5.706
		c0.993,1.655,2.438,2.978,4.343,3.97c1.899,0.992,4.342,1.489,7.318,1.489C657.939,725.895,667.531,718.947,671.834,705.053z"/>
	<path d="M721.453,814.718c1.984,1.817,4.505,3.388,7.567,4.714c3.059,1.321,6.203,2.356,9.428,3.102
		c3.226,0.744,6.16,1.279,8.809,1.612c2.644,0.329,4.547,0.496,5.706,0.496c5.955,0,10.502-1.531,13.646-4.59
		c3.14-3.063,5.497-7.156,7.07-12.281c1.57-5.129,2.688-11.084,3.35-17.864c0.659-6.784,1.489-13.894,2.481-21.337
		c-1.655,1.655-3.474,3.435-5.458,5.334c-1.985,1.903-4.591,3.722-7.815,5.458c-3.226,1.737-7.238,3.184-12.034,4.343
		c-4.799,1.155-10.916,1.736-18.359,1.736c-12.076,0-22.206-2.233-30.394-6.699s-14.806-10.42-19.849-17.863
		c-5.048-7.443-8.646-15.918-10.793-25.432c-2.151-9.51-3.226-19.31-3.226-29.401c0-5.125,0.248-12.033,0.744-20.717
		s1.651-18.069,3.474-28.16c1.818-10.088,4.59-20.26,8.312-30.518c3.722-10.254,8.89-19.559,15.507-27.912
		c6.614-8.351,14.844-15.174,24.688-20.47c9.839-5.292,21.872-7.939,36.1-7.939c4.299,0,8.188,0.496,11.661,1.489
		c3.474,0.992,6.613,2.317,9.429,3.97c2.811,1.655,5.497,3.473,8.063,5.458c2.563,1.985,5.167,4.055,7.815,6.203l2.48-19.353
		l77.41,3.722l-19.353,190.796c-0.496,3.311-0.992,7.114-1.488,11.413c-0.496,4.303-1.159,8.847-1.985,13.646
		c-0.829,4.795-1.903,9.8-3.225,15.01c-1.326,5.211-2.978,10.378-4.963,15.507c-6.121,19.187-15.84,33.452-29.152,42.8
		c-13.316,9.343-30.23,14.018-50.738,14.018c-6.288,0-11.91-0.457-16.872-1.364c-4.962-0.911-9.595-2.357-13.894-4.342
		c-4.304-1.985-8.479-4.509-12.53-7.567c-4.055-3.063-8.148-6.742-12.281-11.041L721.453,814.718z M792.908,630.124
		c-0.662-1.322-1.821-2.978-3.473-4.963c-1.656-1.984-4.304-2.977-7.939-2.977c-4.467,0-8.727,1.821-12.778,5.458
		c-4.055,3.641-7.609,8.684-10.669,15.135c-3.063,6.451-5.501,14.228-7.318,23.322c-1.822,9.099-2.729,19.104-2.729,30.021
		c0,7.113,0.496,12.696,1.488,16.747c0.992,4.056,2.233,7.071,3.722,9.056c1.489,1.985,3.059,3.188,4.714,3.598
		c1.652,0.415,3.141,0.621,4.467,0.621c3.97,0,8.226-1.241,12.777-3.722c4.547-2.481,7.896-6.699,10.048-12.654L792.908,630.124z"/>
	<path d="M938.301,814.718c1.984,1.817,4.505,3.388,7.567,4.714c3.059,1.321,6.203,2.356,9.428,3.102
		c3.226,0.744,6.16,1.279,8.809,1.612c2.644,0.329,4.547,0.496,5.706,0.496c5.955,0,10.502-1.531,13.646-4.59
		c3.14-3.063,5.497-7.156,7.07-12.281c1.57-5.129,2.688-11.084,3.35-17.864c0.659-6.784,1.489-13.894,2.481-21.337
		c-1.655,1.655-3.474,3.435-5.458,5.334c-1.985,1.903-4.591,3.722-7.815,5.458c-3.226,1.737-7.238,3.184-12.034,4.343
		c-4.799,1.155-10.916,1.736-18.359,1.736c-12.076,0-22.206-2.233-30.394-6.699s-14.806-10.42-19.849-17.863
		c-5.048-7.443-8.646-15.918-10.793-25.432c-2.151-9.51-3.226-19.31-3.226-29.401c0-5.125,0.248-12.033,0.744-20.717
		s1.651-18.069,3.474-28.16c1.818-10.088,4.59-20.26,8.312-30.518c3.722-10.254,8.89-19.559,15.507-27.912
		c6.614-8.351,14.844-15.174,24.688-20.47c9.839-5.292,21.872-7.939,36.1-7.939c4.299,0,8.188,0.496,11.661,1.489
		c3.474,0.992,6.613,2.317,9.429,3.97c2.811,1.655,5.497,3.473,8.063,5.458c2.563,1.985,5.167,4.055,7.815,6.203l2.48-19.353
		l77.41,3.722l-19.353,190.796c-0.496,3.311-0.992,7.114-1.488,11.413c-0.496,4.303-1.159,8.847-1.985,13.646
		c-0.829,4.795-1.903,9.8-3.225,15.01c-1.326,5.211-2.978,10.378-4.963,15.507c-6.121,19.187-15.84,33.452-29.152,42.8
		c-13.316,9.343-30.23,14.018-50.738,14.018c-6.288,0-11.91-0.457-16.872-1.364c-4.962-0.911-9.595-2.357-13.894-4.342
		c-4.304-1.985-8.479-4.509-12.53-7.567c-4.055-3.063-8.148-6.742-12.281-11.041L938.301,814.718z M1009.756,630.124
		c-0.662-1.322-1.821-2.978-3.473-4.963c-1.656-1.984-4.304-2.977-7.939-2.977c-4.467,0-8.727,1.821-12.778,5.458
		c-4.055,3.641-7.609,8.684-10.669,15.135c-3.063,6.451-5.501,14.228-7.318,23.322c-1.822,9.099-2.729,19.104-2.729,30.021
		c0,7.113,0.496,12.696,1.488,16.747c0.992,4.056,2.233,7.071,3.722,9.056c1.489,1.985,3.059,3.188,4.714,3.598
		c1.652,0.415,3.141,0.621,4.467,0.621c3.97,0,8.226-1.241,12.777-3.722c4.547-2.481,7.896-6.699,10.048-12.654L1009.756,630.124z"
		/>
</g>
<g>
	<path d="M267.237,909.738c0,5.674-2.029,10.256-6.087,13.745c-4.059,3.491-9.622,5.236-16.691,5.236
		c-7.068,0-12.611-1.745-16.625-5.236c-4.015-3.489-6.021-8.071-6.021-13.745c0-5.76,2.007-10.407,6.021-13.941
		c4.014-3.535,9.557-5.302,16.625-5.302c7.069,0,12.633,1.767,16.691,5.302C265.208,899.331,267.237,903.979,267.237,909.738z"/>
	<path d="M274.304,884.342c0-2.441,0.108-5.825,0.327-10.145c0.217-4.32,0.916-9.053,2.095-14.203
		c1.178-5.148,2.988-10.362,5.433-15.644c2.442-5.279,5.846-10.058,10.211-14.334c4.362-4.275,9.883-7.789,16.56-10.538
		c6.676-2.749,14.857-4.124,24.545-4.124c7.766,0,14.181,0.896,19.243,2.684c5.06,1.79,9.075,4.146,12.043,7.069
		c2.966,2.925,5.04,6.263,6.218,10.015c1.179,3.753,1.768,7.637,1.768,11.65c0,2.095-0.153,4.168-0.458,6.218
		c-0.307,2.052-0.721,4.081-1.244,6.087h-26.181c0-1.744-0.153-3.577-0.458-5.498c-0.308-1.918-0.852-3.686-1.637-5.302
		c-0.785-1.613-1.878-2.945-3.272-3.992c-1.397-1.048-3.187-1.571-5.367-1.571c-3.056,0-5.805,1.158-8.247,3.47
		c-2.444,2.313-4.496,5.281-6.152,8.901c-1.659,3.622-2.926,7.658-3.797,12.108c-0.873,4.451-1.309,8.771-1.309,12.96
		c0,2.356,0.217,4.647,0.654,6.872c0.436,2.226,1.09,4.189,1.964,5.892c0.871,1.701,1.918,3.076,3.142,4.123
		c1.221,1.047,2.618,1.571,4.188,1.571c1.571,0,3.315-0.196,5.236-0.59c1.919-0.393,3.862-1.243,5.825-2.552
		c1.964-1.31,3.883-3.163,5.76-5.564c1.876-2.398,3.601-5.563,5.171-9.49h34.167c-1.136,7.507-3.317,14.269-6.546,20.29
		c-3.229,6.022-7.396,11.127-12.501,15.316s-11.084,7.419-17.935,9.688c-6.852,2.268-14.422,3.403-22.712,3.403
		c-10.211,0-18.393-1.354-24.545-4.059s-10.865-6.218-14.138-10.538c-3.272-4.319-5.433-9.118-6.479-14.399
		C274.827,894.837,274.304,889.578,274.304,884.342z"/>
	<path d="M431.519,814.831c6.894,0,13.287,0.372,19.178,1.113c5.891,0.742,11.062,2.313,15.513,4.712
		c4.451,2.401,8.071,5.936,10.865,10.604c2.792,4.67,4.536,10.931,5.236,18.785c2.181,0.176,4.732,0.131,7.658-0.131
		c2.923-0.262,5.911-0.632,8.967-1.113c3.054-0.479,5.956-1.024,8.705-1.636c2.749-0.609,4.995-1.222,6.741-1.833l-3.927,24.479
		c-4.889,1.921-9.775,3.317-14.661,4.189c-4.889,0.873-9.557,1.396-14.007,1.57c-0.438,3.928-1.158,8.008-2.16,12.24
		c-1.005,4.233-2.444,8.335-4.32,12.305c-1.878,3.973-4.276,7.746-7.199,11.323c-2.926,3.58-6.525,6.722-10.8,9.426
		c-4.277,2.706-9.36,4.844-15.251,6.414c-5.891,1.571-12.678,2.356-20.355,2.356c-7.769,0-14.576-0.546-20.422-1.637
		c-5.848-1.09-10.734-3.162-14.661-6.218c-3.928-3.054-6.896-7.352-8.901-12.895c-2.007-5.541-3.011-12.763-3.011-21.664
		c0-5.847,0.35-11.694,1.047-17.542c0.697-5.846,1.876-11.454,3.534-16.821c1.657-5.367,3.905-10.362,6.742-14.988
		c2.835-4.625,6.349-8.641,10.538-12.044c4.188-3.403,9.163-6.087,14.923-8.051S423.927,814.831,431.519,814.831z M443.824,865.229
		c-4.016-2.529-7.658-5.278-10.931-8.247c-3.272-2.966-6.087-6.021-8.443-9.163c-2.009,2.095-3.711,4.647-5.105,7.658
		c-1.397,3.011-2.553,6.152-3.469,9.425c-0.917,3.273-1.594,6.46-2.029,9.557c-0.438,3.099-0.654,5.739-0.654,7.92
		c0,0.961,0.021,2.379,0.065,4.254c0.043,1.878,0.37,3.797,0.981,5.76c0.609,1.964,1.614,3.666,3.011,5.105
		c1.396,1.44,3.403,2.16,6.021,2.16c3.928,0,7.2-1.198,9.818-3.6c2.618-2.399,4.69-5.345,6.218-8.836
		c1.526-3.49,2.618-7.243,3.272-11.259C443.235,871.951,443.648,868.372,443.824,865.229z"/>
	<path d="M610.074,861.826c0-1.832-0.11-3.708-0.327-5.629c-0.219-1.918-0.589-3.643-1.112-5.171c-0.523-1.525-1.244-2.77-2.16-3.73
		c-0.916-0.959-2.117-1.44-3.6-1.44c-1.747,0-3.338,0.962-4.778,2.88c-1.439,1.921-2.684,4.234-3.73,6.938l-7.069,71.344h-40.319
		l6.938-65.191c0.174-1.047,0.305-2.487,0.393-4.319c0.086-1.833-0.045-3.601-0.393-5.302c-0.35-1.702-1.004-3.185-1.964-4.451
		c-0.961-1.264-2.356-1.898-4.188-1.898c-2.356,0-4.386,0.962-6.087,2.88c-1.702,1.921-3.122,4.277-4.255,7.069l-7.331,71.213
		h-40.58l11.127-111.008l41.104-1.833l-1.44,13.353c3.315-3.928,7.112-6.916,11.389-8.968c4.275-2.049,8.856-3.076,13.745-3.076
		c13.091,0,21.643,5.236,25.658,15.709c3.751-4.975,8.355-8.813,13.811-11.52c5.452-2.704,11.062-4.059,16.821-4.059
		c5.236,0,9.729,0.743,13.483,2.226c3.751,1.485,6.827,3.601,9.229,6.35c2.399,2.749,4.189,6.109,5.367,10.079
		c1.178,3.973,1.768,8.488,1.768,13.549c0,3.58-0.242,7.288-0.721,11.127c-0.48,3.842-1.004,7.572-1.57,11.192
		c-0.569,3.623-1.093,7.026-1.571,10.211c-0.48,3.187-0.72,5.956-0.72,8.313c0,2.271,0.501,4.3,1.505,6.087
		c1.003,1.79,2.9,2.684,5.695,2.684c2.006,0,3.708-0.239,5.104-0.72c1.396-0.479,2.573-1.198,3.535-2.16
		c0.959-0.959,1.81-2.095,2.553-3.403c0.74-1.31,1.46-2.835,2.159-4.582l10.211,12.044c-1.484,4.276-3.579,8.27-6.283,11.978
		c-2.706,3.71-5.805,6.918-9.295,9.622c-3.491,2.706-7.287,4.843-11.389,6.414c-4.103,1.57-8.247,2.356-12.436,2.356
		c-6.634,0-12.001-0.962-16.102-2.88c-4.104-1.919-7.311-4.406-9.622-7.462c-2.313-3.054-3.861-6.522-4.646-10.407
		c-0.786-3.882-1.179-7.744-1.179-11.585c0-2.618,0.174-5.41,0.523-8.378c0.349-2.966,0.721-5.977,1.113-9.032
		c0.393-3.054,0.763-6.065,1.112-9.033C609.898,867.238,610.074,864.444,610.074,861.826z"/>
</g>
</svg>
