<?xml version="1.0" encoding="utf-8"?>
<!-- Generator: Adobe Illustrator 16.0.0, SVG Export Plug-In . SVG Version: 6.00 Build 0)  -->
<!DOCTYPE svg PUBLIC "-//W3C//DTD SVG 1.1//EN" "http://www.w3.org/Graphics/SVG/1.1/DTD/svg11.dtd">
<svg version="1.1" id="Layer_1" xmlns="http://www.w3.org/2000/svg" xmlns:xlink="http://www.w3.org/1999/xlink" x="0px" y="0px"
	 width="612px" height="792px" viewBox="0 0 612 792" enable-background="new 0 0 612 792" xml:space="preserve">
<rect x="-1234.47" y="-852.292" fill="#FDFDFE" width="2547.959" height="2440.297"/>
<g>
	<path fill="#262626" d="M269.525,272.432c16.383-32.443,26.483-66.852,30.021-102.271c3.418-34.25,0.589-68-8.414-100.317
		c-9.02-32.38-23.787-61.692-43.881-87.117c-20.847-26.377-46.537-47.384-76.359-62.444c-29.818-15.058-61.974-23.262-95.575-24.38
		c-32.392-1.081-64.744,4.438-96.158,16.399c-31.35,11.939-60.192,29.695-85.725,52.778c-26.404,23.872-48.099,52.426-64.482,84.869
		c-18.804,37.237-29.554,78.308-31.188,119.035l-0.028,0.014l-0.1,3.867l-0.309,11.899l0.262-0.143
		c0.478,30.263,5.866,59.599,16.052,87.404l-0.015,0.045l0.833,2.213c0.003,0.004,0.005,0.011,0.007,0.015l6.874,18.239l0.346-1.056
		c6.743,14.554,14.8,28.251,24.093,40.975l-1.226-0.25l12.893,14.979l1.545,1.795l0.047,0.007
		c19.377,22.049,42.417,39.922,68.542,53.114c26.119,13.19,54.169,21.125,83.408,23.631l0.035,0.029l2.364,0.182l19.676,1.482
		l-0.922-0.836c15.79-0.072,31.625-1.725,47.371-4.943l-0.64,0.898l18.721-5.285l2.296-0.649l0.03-0.036
		c28.415-8.309,55.214-21.384,79.846-38.961l0.039,0.294l9.396-7.311l3.05-2.376l-0.005-0.031
		C224.053,342.701,250.722,309.667,269.525,272.432z"/>
	<path fill="#B42025" d="M38.518,182.42c82.78,41.803,136.805,113.279,146.427,182.821c31.616-24.608,58.8-56.962,78.462-95.898
		c65.502-129.711,22.718-283.285-95.566-343.017C49.56-133.405-99.427-76.672-164.929,53.039
		c-19.663,38.937-29.563,80.019-30.598,120.07C-133.852,139.571-44.26,140.618,38.518,182.42z"/>
	<path fill="#262626" d="M184.945,365.241c-9.623-69.542-63.647-141.018-146.427-182.821
		c-82.778-41.802-172.369-42.849-234.045-9.312c-0.891,34.392,4.767,68.019,16.396,98.871c3.812-11.628,11.587-22.017,22.838-28.985
		c25.642-15.887,59.615-8,75.878,17.616c16.268,25.611,8.665,59.252-16.976,75.135c-12.366,7.663-26.665,9.779-39.983,7.061
		c18.598,21.607,41.385,39.813,68.005,53.255c26.617,13.441,54.786,20.973,83.207,23.115c-3.637-3.288-6.908-7.1-9.66-11.432
		c-16.261-25.614-8.66-59.255,16.979-75.14c25.647-15.884,59.618-7.998,75.879,17.617c12.253,19.289,10.961,43.129-1.375,60.513
		C127.387,401.778,157.8,386.368,184.945,365.241z"/>
	<g>
		<path fill="#FFFFFF" d="M-94.418,340.949c23.185-14.363,30.059-44.783,15.35-67.943c-14.707-23.162-45.427-30.292-68.613-15.927
			c-10.173,6.301-17.203,15.693-20.651,26.208c8.854,23.495,21.54,45.206,37.759,64.047
			C-118.529,349.793-105.599,347.875-94.418,340.949z"/>
		<path fill="#FFFFFF" d="M81.396,354.038c-14.707-23.163-45.428-30.292-68.613-15.927c-23.188,14.361-30.063,44.778-15.352,67.943
			c2.486,3.918,5.439,7.361,8.73,10.336c24.798,1.866,49.813-0.808,73.987-7.633C91.302,393.037,92.471,371.479,81.396,354.038z"/>
	</g>
	<g>
		<path fill="#262626" d="M5.011,134.892c-16.345,10.125-38,5.099-48.368-11.23c-10.368-16.326-5.521-37.771,10.823-47.896
			c16.344-10.125,38-5.099,48.368,11.23C26.204,103.322,21.359,124.765,5.011,134.892z"/>
		<path fill="#262626" d="M147.898,207.072c-16.348,10.125-38.003,5.098-48.373-11.228c-10.365-16.33-5.52-37.77,10.824-47.897
			c16.346-10.127,38-5.099,48.369,11.229C169.09,175.502,164.244,196.946,147.898,207.072z"/>
		<g>
			<path fill="#262626" d="M246.226,187.117c-14.669,9.085-34.101,4.578-43.405-10.076c-9.308-14.654-4.959-33.899,9.71-42.984
				c14.667-9.09,34.104-4.576,43.407,10.074C265.245,158.786,260.894,178.028,246.226,187.117z"/>
			<path fill="#262626" d="M-40.111,41.902c-14.668,9.087-34.103,4.576-43.409-10.077c-9.305-14.652-4.957-33.896,9.712-42.984
				c14.669-9.087,34.104-4.576,43.409,10.078C-21.095,13.572-25.443,32.816-40.111,41.902z"/>
			<g>
				<path fill="#262626" d="M74.805-12.155C57.238-1.272,35.456-4.331,26.151-18.984c-9.305-14.653-2.609-35.351,14.958-46.232
					c17.566-10.882,39.348-7.827,48.654,6.827C99.067-43.736,92.371-23.037,74.805-12.155z"/>
				<path fill="#262626" d="M235.381,36.911c-0.175,20.643-14.397,37.119-31.771,36.796c-17.37-0.318-31.309-17.316-31.132-37.957
					c0.177-20.643,14.398-37.118,31.773-36.796C221.621-0.725,235.561,16.269,235.381,36.911z"/>
			</g>
		</g>
	</g>
	<path fill="#070909" d="M39.327,183.32c0.856,0.433,1.652,0.938,2.39,1.502l129.64-256.721l-7.027-3.548L34.564,181.521
		C36.183,181.941,37.782,182.54,39.327,183.32z"/>
	<path opacity="0.15" fill="#FFFFFF" d="M253.454,35.155c44.005,95.864,17.208,201.333-59.857,235.564
		c-77.065,34.234-175.213-15.731-219.221-111.596C-69.633,63.255-42.837-42.209,34.229-76.444
		C111.294-110.678,209.442-60.713,253.454,35.155z"/>
</g>
<g>
	<text transform="matrix(1 0 0 1 -1019.5117 781.7188)" font-family="'BullettoKilla'" font-size="396.9756">Trendybugg</text>
	<text transform="matrix(1 0 0 1 204.7949 927.0176)" font-family="'BullettoKilla'" font-size="209.4495">.com</text>
</g>
</svg>
